HIERARCHY
ROOT Hips
{
	OFFSET	0.00	0.00	0.00
	CHANNELS 6 Xposition Yposition Zposition Zrotation Xrotation Yrotation
	JOINT LeftUpLeg
	{
		OFFSET	 0.126116	-0.014019	-0.065224
		CHANNELS 3 Zrotation Xrotation Yrotation
		JOINT LeftLeg
		{
			OFFSET	 0.000000	 0.000000	 0.569914
			CHANNELS 3 Zrotation Xrotation Yrotation
			JOINT LeftFoot
			{
				OFFSET	 0.000000	 0.000000	 0.544423
				CHANNELS 3 Zrotation Xrotation Yrotation
				JOINT LeftToeBase
				{
					OFFSET	 0.000000	 0.000000	 0.207117
					CHANNELS 3 Zrotation Xrotation Yrotation
					End Site
					{
						OFFSET	 0.000000	 0.000000	 0.207117
					}
				}
			}
		}
	}
	JOINT RightUpLeg
	{
		OFFSET	-0.124023	-0.008373	-0.065224
		CHANNELS 3 Zrotation Xrotation Yrotation
		JOINT RightLeg
		{
			OFFSET	 0.000000	 0.000000	 0.570047
			CHANNELS 3 Zrotation Xrotation Yrotation
			JOINT RightFoot
			{
				OFFSET	 0.000000	 0.000000	 0.544354
				CHANNELS 3 Zrotation Xrotation Yrotation
				JOINT RightToeBase
				{
					OFFSET	 0.000000	 0.000000	 0.207540
					CHANNELS 3 Zrotation Xrotation Yrotation
					End Site
					{
						OFFSET	 0.000000	 0.000000	 0.207540
					}
				}
			}
		}
	}
	JOINT Spine
	{
		OFFSET	 0.000184	-0.007763	 0.117403
		CHANNELS 3 Zrotation Xrotation Yrotation
		JOINT Spine1
		{
			OFFSET	 0.000000	 0.000000	 0.137269
			CHANNELS 3 Zrotation Xrotation Yrotation
			JOINT Spine2
			{
				OFFSET	 0.000000	 0.000000	 0.156879
				CHANNELS 3 Zrotation Xrotation Yrotation
				JOINT LeftShoulder
				{
					OFFSET	 0.080501	-0.002496	 0.160144
					CHANNELS 3 Zrotation Xrotation Yrotation
					JOINT LeftArm
					{
						OFFSET	 0.000000	 0.000000	 0.164363
						CHANNELS 3 Zrotation Xrotation Yrotation
						JOINT LeftForeArm
						{
							OFFSET	 0.000000	 0.000000	 0.364576
							CHANNELS 3 Zrotation Xrotation Yrotation
							JOINT LeftHand
							{
								OFFSET	 0.000000	 0.000000	 0.360812
								CHANNELS 3 Zrotation Xrotation Yrotation
								JOINT LeftHandIndex1
								{
									OFFSET	 0.000000	 0.000000	 0.086006
									CHANNELS 3 Zrotation Xrotation Yrotation
									JOINT LeftHandIndex2
									{
										OFFSET	 0.000000	 0.000000	 0.047237
										CHANNELS 3 Zrotation Xrotation Yrotation
										JOINT LeftHandIndex3
										{
											OFFSET	-0.004284	-0.000551	 0.038165
											CHANNELS 3 Zrotation Xrotation Yrotation
											End Site
											{
												OFFSET	-0.004284	-0.000551	 0.038165
											}
										}
									}
								}
							}
						}
					}
				}
				JOINT Neck
				{
					OFFSET	 0.000000	 0.000000	 0.176489
					CHANNELS 3 Zrotation Xrotation Yrotation
					JOINT Head
					{
						OFFSET	 0.000000	-0.001747	 0.077940
						CHANNELS 3 Zrotation Xrotation Yrotation
						End Site
						{
							OFFSET	 0.000000	-0.001747	 0.077940
						}
					}
				}
				JOINT RightShoulder
				{
					OFFSET	-0.080363	 0.000306	 0.159706
					CHANNELS 3 Zrotation Xrotation Yrotation
					JOINT RightArm
					{
						OFFSET	 0.000000	 0.000000	 0.164196
						CHANNELS 3 Zrotation Xrotation Yrotation
						JOINT RightForeArm
						{
							OFFSET	 0.000000	 0.000000	 0.365611
							CHANNELS 3 Zrotation Xrotation Yrotation
							JOINT RightHand
							{
								OFFSET	 0.000000	 0.000000	 0.360648
								CHANNELS 3 Zrotation Xrotation Yrotation
								JOINT RightHandIndex1
								{
									OFFSET	 0.000000	 0.000000	 0.069977
									CHANNELS 3 Zrotation Xrotation Yrotation
									JOINT RightHandIndex2
									{
										OFFSET	 0.000000	 0.000000	 0.052305
										CHANNELS 3 Zrotation Xrotation Yrotation
										JOINT RightHandIndex3
										{
											OFFSET	 0.009002	-0.000782	 0.042196
											CHANNELS 3 Zrotation Xrotation Yrotation
											End Site
											{
												OFFSET	 0.009002	-0.000782	 0.042196
											}
										}
									}
								}
							}
						}
					}
				}
			}
		}
	}
}
MOTION
Frames:    10
Frame Time: 0.03333334
-0.715343	-0.004008	 1.276540	 169.515700	-11.525040	-0.755752	-11.843770	 5.460745	-174.001400	-2.006915	-29.079040	-1.688311	-15.899190	 78.844450	 3.796879	-2.385833	 28.452760	 0.000004	-13.959930	 4.947605	-170.161700	 9.677119	-28.102820	 4.698664	-4.387790	 82.860890	 3.504738	 2.384659	 28.388700	-0.000001	 9.109660	 10.445570	-12.464560	 2.549194	 8.355725	-5.124516	 12.539370	-1.502841	 9.495390	-91.776080	 78.527380	 179.999900	-2.883296	 51.668820	-21.829860	-26.797400	 19.627870	-66.253420	-63.669080	-63.110940	-42.206720	-4.130354	 21.526190	 0.991307	-5.167926	 0.731697	 3.519349	-1.378229	 35.397820	-2.634230	 14.530930	 5.982421	-2.487284	 9.343731	-13.416800	-2.002381	 89.782070	 78.203900	-180.000000	-49.944000	 6.276464	 90.301400	 10.624500	 1.267358	 135.125000	 23.165000	-20.584910	 5.660172	 5.716295	 19.173350	-3.684826	 5.027458	 0.246833	-9.377971	-2.350882	 35.473990	 5.254307
-0.715279	-0.004520	 1.275737	 168.742900	-11.524550	 0.080371	-12.591460	 5.658834	-174.533400	-1.655108	-29.498050	-1.536810	-17.917680	 79.017810	 5.606418	-2.385833	 28.452760	 0.000004	-14.882930	 5.011652	-170.707900	 10.055500	-27.939890	 4.855392	-6.544312	 82.786640	 5.394613	 2.384659	 28.388700	-0.000001	 11.436590	 9.777167	-15.102260	 3.684146	 9.254530	-6.470819	 12.707200	-3.479014	 12.539840	-91.776250	 78.527400	-179.999900	-11.222390	 46.832450	-19.804100	-26.404450	 20.622790	-68.213490	-66.103740	-62.711590	-43.843210	-4.130354	 21.526190	 0.991307	-5.167926	 0.731697	 3.519349	-1.378229	 35.397820	-2.634230	 14.951660	 5.187965	-4.052385	 8.995201	-14.736660	-4.244283	 89.782090	 78.203850	-180.000000	-51.370120	 4.908485	 91.592480	 11.793740	 0.110118	 133.162600	 17.891740	-18.437250	 6.870691	 5.716295	 19.173350	-3.684826	 5.027458	 0.246833	-9.377971	-2.350882	 35.473990	 5.254307
-0.713191	-0.005445	 1.274274	 168.192300	-11.271080	 0.058890	-13.613990	 5.114395	-173.837200	-1.340454	-29.356680	-1.375530	-15.555410	 78.795970	 2.906454	-2.385833	 28.452760	 0.000004	-15.640980	 4.035254	-170.149700	 10.453220	-28.314730	 5.108465	-4.565374	 82.751720	 3.101032	 2.384659	 28.388700	-0.000001	 13.372380	 8.372503	-15.617050	 4.638468	 11.165250	-5.813447	 12.924870	-6.059189	 12.596050	-91.776180	 78.527350	-180.000000	-21.224100	 42.664680	-19.996470	-25.809000	 21.263030	-70.251300	-68.756000	-62.320850	-45.669700	-4.130354	 21.526190	 0.991307	-5.167926	 0.731697	 3.519349	-1.378229	 35.397820	-2.634230	 15.152950	 5.735655	-4.804972	 8.859292	-17.101720	-4.124333	 89.782110	 78.203920	 180.000000	-50.478210	 3.038522	 92.688520	 13.131650	-1.404792	 131.318300	 12.365600	-16.805900	 8.512815	 5.716295	 19.173350	-3.684826	 5.027458	 0.246833	-9.377971	-2.350882	 35.473990	 5.254307
-0.711348	-0.006124	 1.273364	 167.647400	-10.955480	-0.129714	-14.696000	 4.650774	-173.141200	-1.007470	-28.957650	-1.196969	-13.678190	 78.312840	 0.729378	-2.385833	 28.452760	 0.000004	-16.284890	 2.997514	-169.629300	 10.848760	-28.817570	 5.387032	-3.773251	 82.857070	 2.069579	 2.384659	 28.388700	-0.000001	 15.354900	 6.850663	-15.872760	 5.753280	 12.811110	-5.238848	 13.026950	-8.189731	 12.640070	-91.776250	 78.527420	-179.999900	-29.311010	 39.427450	-24.031910	-25.992820	 21.393600	-69.904050	-69.773860	-61.925240	-45.920480	-4.130354	 21.526190	 0.991307	-5.167926	 0.731697	 3.519349	-1.378229	 35.397820	-2.634230	 15.099610	 5.787496	-5.190855	 8.717555	-18.734730	-4.375409	 89.782100	 78.203890	-180.000000	-48.755910	 1.440562	 93.945920	 14.603720	-3.286842	 129.507500	 6.646499	-15.367620	 9.839952	 5.716295	 19.173350	-3.684826	 5.027458	 0.246833	-9.377971	-2.350882	 35.473990	 5.254307
-0.710556	-0.005969	 1.273351	 167.054300	-10.853900	-0.203199	-15.994740	 4.798355	-172.631100	-0.605861	-28.446520	-0.986095	-13.865690	 78.345260	 0.703399	-2.385833	 28.452760	 0.000004	-17.340440	 2.607908	-169.243900	 11.297510	-28.941140	 5.631759	-4.624503	 83.157020	 2.731260	 2.384659	 28.388700	-0.000001	 17.888830	 5.111591	-16.033470	 7.716860	 14.217560	-6.108136	 12.874520	-9.915071	 12.910230	-91.776240	 78.527420	-180.000000	-35.930630	 37.210320	-32.108730	-27.094210	 20.914070	-66.789120	-69.907310	-61.614030	-45.321430	-4.130354	 21.526190	 0.991307	-5.167926	 0.731697	 3.519349	-1.378229	 35.397820	-2.634230	 14.603570	 5.532869	-4.921322	 8.295442	-20.154790	-5.250250	 89.782120	 78.203890	 180.000000	-45.902700	-0.500443	 95.415470	 16.078320	-5.574520	 126.964800	-0.803254	-14.312370	 10.251730	 5.716295	 19.173350	-3.684826	 5.027458	 0.246833	-9.377971	-2.350882	 35.473990	 5.254307
-0.713188	-0.004643	 1.274934	 166.746200	-10.317090	 0.344953	-16.868650	 4.618395	-172.834900	-0.352703	-28.498580	-0.866845	-12.586060	 78.490490	-0.642383	-2.385833	 28.452760	 0.000004	-18.240830	 2.579984	-169.470300	 11.642460	-28.249310	 5.677756	-2.110306	 83.380790	 0.043016	 2.384659	 28.388700	-0.000001	 19.990880	 2.811289	-17.227800	 9.568511	 15.384100	-7.640830	 12.613280	-11.028210	 13.804780	-91.776140	 78.527400	 180.000000	-38.447140	 35.479060	-40.295910	-28.537240	 20.010110	-62.391010	-67.600910	-61.345540	-42.710630	-4.130354	 21.526190	 0.991307	-5.167926	 0.731697	 3.519349	-1.378229	 35.397820	-2.634230	 13.885110	 4.781625	-4.491730	 7.620702	-20.965020	-6.701868	 89.782070	 78.203900	-180.000000	-42.653370	-3.032345	 96.624060	 16.700230	-7.303316	 123.465000	-7.852508	-13.830180	 9.874561	 5.716295	 19.173350	-3.684826	 5.027458	 0.246833	-9.377971	-2.350882	 35.473990	 5.254307
-0.716786	-0.002939	 1.276877	 166.656900	-9.510278	 1.115219	-18.163430	 3.671430	-173.233700	 0.057657	-28.936810	-0.680369	-11.529430	 78.585780	-1.790656	-2.385833	 28.452760	 0.000004	-19.180730	 1.685857	-170.070400	 12.071580	-28.155140	 5.870125	-1.877703	 83.295490	-0.184936	 2.384659	 28.388700	-0.000001	 21.959340	-0.012852	-18.261670	 11.762590	 15.569270	-9.693298	 12.176720	-11.178400	 14.821170	-91.776180	 78.527380	-180.000000	-38.563010	 34.253470	-48.205220	-29.868920	 18.741460	-57.708710	-64.057260	-61.111580	-39.115820	-4.130354	 21.526190	 0.991307	-5.167926	 0.731697	 3.519349	-1.378229	 35.397820	-2.634230	 13.178030	 3.978458	-4.170760	 6.857340	-21.398130	-8.642215	 89.782040	 78.203870	-180.000000	-38.135600	-4.330441	 98.956220	 16.573470	-8.806435	 118.115700	-13.528710	-13.449610	 8.070000	 5.716295	 19.173350	-3.684826	 5.027458	 0.246833	-9.377971	-2.350882	 35.473990	 5.254307
-0.718646	 0.000033	 1.278490	 166.721100	-8.704725	 2.177085	-19.650000	 2.975304	-173.953400	 0.609477	-29.312610	-0.418185	-12.228250	 78.912970	-1.122404	-2.385833	 28.452760	 0.000004	-20.399440	 1.196618	-170.687800	 12.510630	-28.218010	 6.097525	-0.733484	 84.015260	-1.246521	 2.384659	 28.388700	-0.000001	 23.769150	-3.269653	-18.688560	 14.183570	 15.653900	-11.643530	 11.640350	-11.208720	 15.379150	-91.776130	 78.527380	 180.000000	-36.267420	 32.732410	-57.193260	-31.050590	 17.386490	-53.068200	-59.956670	-60.600950	-34.988300	-4.130354	 21.526190	 0.991307	-5.167926	 0.731697	 3.519349	-1.378229	 35.397820	-2.634230	 12.496230	 3.850149	-3.920957	 6.215639	-22.509130	-9.597494	 89.782040	 78.203850	-180.000000	-32.459980	-2.800051	 102.627300	 15.877150	-11.126090	 109.827700	-17.720040	-11.513420	 7.775335	 5.716295	 19.173350	-3.684826	 5.027458	 0.246833	-9.377971	-2.350882	 35.473990	 5.254307
-0.720250	 0.006223	 1.279124	 166.716700	-7.883790	 2.288625	-21.016930	 1.984392	-173.524200	 1.141372	-29.121810	-0.156823	-10.085620	 78.511870	-3.440343	-2.385833	 28.452760	 0.000004	-21.484090	-0.037211	-170.014000	 12.982950	-28.956000	 6.480085	 4.995686	 83.997130	-7.017993	 2.384659	 28.388700	-0.000001	 25.635300	-6.322884	-17.561840	 16.513930	 15.859970	-13.096300	 10.909110	-11.213640	 15.205720	-91.776180	 78.527380	 180.000000	-33.647100	 31.417900	-65.185470	-32.053740	 16.183080	-48.905930	-56.064460	-59.925800	-31.281350	-4.130354	 21.526190	 0.991307	-5.167926	 0.731697	 3.519349	-1.378229	 35.397820	-2.634230	 11.817690	 3.509719	-4.351255	 5.625840	-22.838880	-8.793470	 89.782100	 78.203870	 180.000000	-25.620940	 1.558632	 105.093700	 14.173460	-12.008340	 100.816900	-18.564370	-9.715891	 9.068293	 5.716295	 19.173350	-3.684826	 5.027458	 0.246833	-9.377971	-2.350882	 35.473990	 5.254307
-0.720734	 0.011605	 1.279470	 166.717800	-7.115760	 3.321245	-22.447040	 1.157733	-174.281900	 1.542329	-29.962460	 0.039321	-10.580120	 79.126520	-2.938869	-2.385833	 28.452760	 0.000004	-22.867930	-0.020657	-170.594900	 13.261290	-28.356590	 6.496141	 8.779798	 83.968470	-10.840850	 2.384659	 28.388700	-0.000001	 27.087520	-9.157826	-17.224410	 18.363740	 15.954030	-14.547230	 10.351780	-11.546600	 15.189900	-91.776180	 78.527380	-180.000000	-31.615010	 30.381710	-70.367450	-32.263630	 15.571290	-47.385510	-52.623860	-59.276540	-28.193370	-4.130354	 21.526190	 0.991307	-5.167926	 0.731697	 3.519349	-1.378229	 35.397820	-2.634230	 11.088120	 3.155287	-3.971968	 4.911342	-23.526560	-9.943924	 89.782100	 78.203830	-180.000000	-19.701430	 6.806872	 105.653300	 12.218560	-12.613950	 91.472010	-19.053510	-7.753718	 13.317770	 5.716295	 19.173350	-3.684826	 5.027458	 0.246833	-9.377971	-2.350882	 35.473990	 5.254307
